<?xml version="1.0" encoding="UTF-8" standalone="no"?>
<svg
   xmlns:dc="http://purl.org/dc/elements/1.1/"
   xmlns:cc="http://creativecommons.org/ns#"
   xmlns:rdf="http://www.w3.org/1999/02/22-rdf-syntax-ns#"
   xmlns:svg="http://www.w3.org/2000/svg"
   xmlns="http://www.w3.org/2000/svg"
   viewBox="0 0 666.66669 400"
   height="400"
   width="666.66669"
   xml:space="preserve"
   id="svg2"
   version="1.1"><metadata
     id="metadata8"><rdf:RDF><cc:Work
         rdf:about=""><dc:format>image/svg+xml</dc:format><dc:type
           rdf:resource="http://purl.org/dc/dcmitype/StillImage" /></cc:Work></rdf:RDF></metadata><defs
     id="defs6"><clipPath
       id="clipPath18"
       clipPathUnits="userSpaceOnUse"><path
         id="path16"
         d="M 0,300 H 500 V 0 H 0 Z" /></clipPath></defs><g
     transform="matrix(1.3333333,0,0,-1.3333333,0,400)"
     id="g10"><g
       id="g12"><g
         clip-path="url(#clipPath18)"
         id="g14"><g
           transform="translate(237.4502,130.5498)"
           id="g20"><path
             id="layer0"
             style="fill:#efefef;fill-opacity:1;fill-rule:evenodd;stroke:none"
             d="m 0,0 c 5,4.967 11.017,7.45 18.05,7.45 7.033,0 13.033,-2.483 18,-7.45 5,-5 7.5,-11.017 7.5,-18.05 0,-7.033 -2.5,-13.033 -7.5,-18 -4.967,-5 -10.967,-7.5 -18,-7.5 -7.033,0 -13.05,2.5 -18.05,7.5 -4.967,4.967 -7.45,10.967 -7.45,18 C -7.45,-11.017 -4.967,-5 0,0 m 87.3,56.85 15.099,-15.1 c 2.368,-2.367 2.384,-4.716 0.051,-7.05 L 85.3,17.55 c -2.366,-2.366 -4.734,-2.366 -7.1,0 L 18.649,77.1 -40.65,17.8 c -0.5,-0.5 -0.983,-0.883 -1.45,-1.15 L -96.05,-37.3 c -2.367,-2.366 -4.734,-2.366 -7.1,0 l -17.15,17.151 c -2.333,2.333 -2.317,4.682 0.05,7.049 l 61.15,61.15 h 0.3 l 55.1,55.1 h 0.35 L 4.5,111 c 4.6,4.6 9.2,6.95 13.8,7.05 h 0.599 c 3.467,-0.067 6.934,-1.417 10.401,-4.05 l 13.65,-12.6 -0.1,-0.1 23.2,-23.2 v 13.2 c 0,3.333 1.667,5 5,5 H 82.3 c 3.333,0 5,-1.667 5,-5 z" /></g></g></g></g></svg>